
<svg xmlns="http://www.w3.org/2000/svg" xmlns:xlink="http://www.w3.org/1999/xlink">
  <symbol id="owl" viewBox="0 0 512 512" >
    <path id="body" fill="#663865" d="
      M256,0 C336.961365,0 414.444441,40 456,40 C488.168196,40 505,16 512,0 C512,48 496,80 464,96 C480,113 496,168 496,200 C496,219 482.703244,253.067556 458,282 C433.738541,
      310.415026 400.362637,335.125439 368,352 C361.937744,405.149109 411.088135,403.149109 432,512 C432,512 48,512 48,512 C48,414.501038 85,369 64,336 C33.5291748,318.420898 0,284.014557 0,
      256 C0,175.885009 49.412674,134.324722 48,96 C0,64 9,23 16,0 C15,25 34.1372299,40 48,40 C69.5458696,40 132.129166,0 256,0 Z"
    />
    <path id="wing-rr" fill="#d97fcc" d="M64,464 C80,464 85,455 88,448 C88,472 88,488 96,488 C94,497 94,505 96,512 C96,512 76,512 56,512 C56,489 64,480 64,464 Z" />
    <path id="wing-rl" fill="#d97fcc" d="M128,456 C128,472 127,488 144,488 C141,497 143,508 144,512 C144,512 132.666667,512 104,512 C102,508 101,496 104,488 C110,485 126,480 128,456 Z" />
    <path id="wing-lr" fill="#d97fcc" d="M172,460 C174,477 176,496 192,496 C193,502 193,508 192,512 C189.333333,512 176,512 152,512 C150,507 149,492 152,488 C160,486 168,480 172,460 Z" />
    <path id="wing-ll" fill="#d97fcc" d="M200,492 C208,497 224,480 224,464 C224,473 229,496 226,512 L200,512 C201,507 201,497 200,492 Z" />
    <path id="wing-top" fill="#d97fcc" d="
      M88,352 C119,367 152,371 176,384 C190.507089,391.858007 209,420 216,448 C216,467 203,488 192,488 C170.000067, 488 178,434 168,424 C172,440 162,
      480 152,480 C127.906375,480 136,429 128,416 C131,427 122,480 104,480 C87.446639,480 104,416 96,401 C96,413 88,448 64,456 C49,416 88,384 88,352 Z"
    />
    <path id="body-front" fill="#d97fcc" d="
      M296,360 C310,360 352,360 360,352 C360,416 400,409 408,512 C408,512 232,512 232,512 C232,432 192,376 160,368 C169.762886,371.112045 188.280518,373.543137 216,368 C118.869507,353.406113 16,325.303174 16,
      240 C16,179.560852 64,152 64,112 C66.8420715,116.525852 72.2908554,119.108913 80,120 C64,128 48,152 48,184 C48,226.809879 88,256 144,256 C200,256 215.156013,235.05159 224,224 C236.814362,243.168098 267.301483,
      220.437782 272,248 C280,248 296,240 296,216 C312,240 352,248 392,248 C463,248 470.587921,200.239708 464,144 C468.046265,152.572166 487.086327,185.049047 480,208 C464,259.820251 412.837952,332.038269 296,360 Z"
    />
    <path id="head-eye-r" fill="#3bfbd2" transform="translate(150.750927, 190.563203) rotate(6) translate(-150.750927, -190.563203) " d="
      M149.204535,240.434844 C195.947064,235.522006 228.993191,206.544704 230.868868,175.543113 C231.236219,169.471453 229.196412,159.630763 221.240237,160.466991 C216.733501,194.122441 168.891922,198.145285 164.710783,
        158.364409 C132.990611,162.703842 105.672646,132.393303 90.5965236,142.021933 C75.5204009,151.650564 69.0276243,166.410098 70.9091366,184.311492 C74.4313891,217.823486 102.462006,245.347682 149.204535,240.434844 Z"
    />
    <path id="head-eye-l" fill="#3bfbd2" transform="translate(376.109925, 183.449079) scale(-1, 1) rotate(6.000000) translate(-376.109925, -183.449079) " d="
      M365.38185,233.394998 C404.016172,229.334367 451.227322,208.284143 457.511042,191.535565 C455.086148,187.597786 452.662687,176.009762 455.002358,167.667039 C434.248115,200.950457 392.224434,187.255019 396.800449,
      149.652108 C357.019573,153.833246 346.554715,130.800949 322.68619,133.309632 C298.817664,135.818315 293.161115,158.534024 295.042627,176.435418 C297.551311,200.303944 321.596634,237.99701 365.38185,233.394998 Z"
    />
    <path id="head-beak" fill="#d97fcc" d="M240,176 C242.901043,169.894398 261.244202,164.414734 272,168 C296,176 296,216 272,232 C264,208 240,232 232,208 C248,200 248,184 240,176 Z" />
    <path id="head" fill="#d97fcc" d="
        M64,40 C118.781662,31.9452209 150.48688,8 248,8 C350.138321,8 416.279022,48 440,48 C463.720978,48 477.028412,47.8527565 488,40 C478,52 474,50 466,56 C467,58 470,57 472,58 C469,
        62 456,58 448,64 C463.770824,58.5823517 472,72 488,56 C464,96 365.191055,150.525879 272,152 C262.568062,135.605194 269.240471,123.431694 264,112 C264,117 264,120 256,128 C258,119 259.257893,
        106.969044 256,96 C252.00433,120.186104 233.403591,127.9548 232,152 C126,140 40,107 24,48 C28,55 32,61 48,64 C40,61 27,50 24,32 C32,48 48,56 72,56 C64,48 80,48 64,40 Z"
    />
  </symbol>

  <symbol id="logo" viewBox="0 -50 64 64">
    <text font-size="4em">🛵</text>
  </symbol>

</svg>